<svg xmlns="http://www.w3.org/2000/svg" width="418.172" height="426.224" viewBox="0 0 418.172 426.224">
  <path id="chair" d="M554.54,198.41a39.715,39.715,0,0,0-38.832-31.258H313.958c-18.941,0-35.047,13.262-38.832,30.781H194.618c-17.523.477-31.73,14.207-31.73,31.73v292.2c0,17.523,14.207,31.258,31.73,31.258h80.035a39.226,39.226,0,0,0,38.832,32.2h202.22c18,0,33.152-11.84,37.887-27.469a39.1,39.1,0,0,0,35.52-38.832V236.773c0-19.418-15.156-35.992-34.57-38.359ZM313.96,180.887H516.18a25.582,25.582,0,0,1,24.625,18,39.473,39.473,0,0,0-29.836,32.2H313.959a25.1,25.1,0,1,1,0-50.2Zm-38.832,358.5H194.62c-9.945,0-18-8.051-18-17.523v-292.2c0-9.945,8.051-17.523,18-17.523h80.035a39.248,39.248,0,0,0,38.832,33.152h196.06v262.84H313.957a38.421,38.421,0,0,0-38.832,31.258Zm240.58,32.676H313.958a25.106,25.106,0,1,1,0-50.2H510.5c.945,17.051,13.262,30.781,29.363,35.047a27.212,27.212,0,0,1-24.152,15.156Zm59.672-53.039a25.578,25.578,0,0,1-51.148,0V236.774a25.578,25.578,0,0,1,51.148,0Z" transform="translate(585.324 -162.888) rotate(90)"/>
</svg>
