<svg xmlns="http://www.w3.org/2000/svg" width="355.188" height="453.851" viewBox="0 0 355.188 453.851">
  <g id="conducter" transform="translate(-198.406 -149.075)">
    <path id="Path_1280" data-name="Path 1280" d="M348.87,262.54h54.262a32.267,32.267,0,0,1-54.262,0Z" fill="#173042"/>
    <path id="Path_1281" data-name="Path 1281" d="M460.21,272.41a84.208,84.208,0,1,1-167.824-9.867h35.52c4.984,19.734,24.664,34.531,48.1,34.531s43.117-14.8,48.1-34.531h35.516a83.306,83.306,0,0,1,.594,9.867Z" fill="#173042"/>
    <path id="Path_1282" data-name="Path 1282" d="M481.32,152.97a9.881,9.881,0,0,0-7.895-3.895H278.565a9.862,9.862,0,0,0-9.52,12.578l23.039,81.152H459.9l23.039-81.152a9.939,9.939,0,0,0-1.629-8.684ZM376,232.939a29.621,29.621,0,1,1,20.926-8.676A29.607,29.607,0,0,1,376,232.939Z" fill="#173042"/>
    <path id="Path_1283" data-name="Path 1283" d="M487.09,336.54H483a9.543,9.543,0,0,1-1.035,1.434l-95.852,113.46a9.888,9.888,0,0,1-7.4,3.5h-.148a9.768,9.768,0,0,1-7.352-3.3l-20.027-22.395-19.336-21.656-63.539-71.039h-3.4c-36.707,0-66.5,25.012-66.5,55.8v180.25c0,16.723,15.734,30.34,35.074,30.34H518.52c19.34,0,35.074-13.617,35.074-30.34V392.336c0-30.785-29.8-55.8-66.5-55.8ZM309.45,451.09a9.8,9.8,0,0,1-7.844,3.848,9.671,9.671,0,0,1-5.969-2.02L275.9,437.773l-17.859,13.664h0A9.853,9.853,0,0,1,246.06,435.8l23.875-18.3a9.852,9.852,0,0,1,11.988,0l25.7,19.734a9.85,9.85,0,0,1,1.824,13.859Zm180.01,3.848h-29.6a9.865,9.865,0,0,1,0-19.73h29.6a9.865,9.865,0,0,1,0,19.73Z" fill="#173042"/>
    <path id="Path_1284" data-name="Path 1284" d="M410.63,391.79l-32.262,38.23-35.52-39.711,26.2-26.2a9.739,9.739,0,0,1,13.91,0Z" fill="#173042"/>
  </g>
</svg>
