<svg xmlns="http://www.w3.org/2000/svg" width="413.281" height="325.609" viewBox="0 0 413.281 325.609">
  <g id="driver" transform="translate(-169.361 -213.204)">
    <path id="Path_1276" data-name="Path 1276" d="M543.49,231.21a204.874,204.874,0,0,1,39.117,107.47,16.392,16.392,0,0,1-10.746,16.484L529.3,370.656a26.572,26.572,0,0,1-31.379-39.434,26.571,26.571,0,0,1-14.511-39.871,26.572,26.572,0,0,1-1.309-50.375l42.562-15.492h0a16.385,16.385,0,0,1,18.832,5.723Z" fill="#173042"/>
    <path id="Path_1277" data-name="Path 1277" d="M398.81,334.29a74,74,0,0,0-74.665,56.625,59.038,59.038,0,0,1-20.289,32.113,14.858,14.858,0,0,1-4.336,2.426,41.37,41.37,0,0,1-24.543,53.5L262.2,483.61A162.794,162.794,0,0,0,547.122,379.935l-12.75,4.625a41.371,41.371,0,0,1-53.215-25.234,14.758,14.758,0,0,1-4.91.953,59.027,59.027,0,0,1-36.16-11.535A74.02,74.02,0,0,0,398.81,334.3Zm28.066,55.93a108.155,108.155,0,0,1,52.086,12.285,29.6,29.6,0,0,1,11.1,42.375,126.176,126.176,0,0,1-142.387,51.856,29.6,29.6,0,0,1-18.762-39.629,108.182,108.182,0,0,1,97.961-66.886Z" fill="#173042"/>
    <path id="Path_1278" data-name="Path 1278" d="M268.6,414.69a26.576,26.576,0,0,0-14.512-39.871,26.572,26.572,0,0,0-31.379-39.434l-42.562,15.492v0a16.388,16.388,0,0,0-10.75,16.484,204.958,204.958,0,0,0,39.117,107.47,16.4,16.4,0,0,0,18.832,5.723l42.562-15.488a26.572,26.572,0,0,0-1.309-50.383Z" fill="#173042"/>
    <path id="Path_1279" data-name="Path 1279" d="M449.87,268.16a126.177,126.177,0,0,0-185,67.335,41.377,41.377,0,0,0-32.984-16.512,162.8,162.8,0,0,1,232.645-84.676,41.373,41.373,0,0,0-14.652,33.852Z" fill="#173042"/>
  </g>
</svg>
